<svg xmlns="http://www.w3.org/2000/svg" xmlns:xlink="http://www.w3.org/1999/xlink" preserveAspectRatio="xMidYMid meet" width="1920" height="1080" viewBox="0 0 1920 1080" style="width:100%;height:100%"><defs><animateTransform repeatCount="indefinite" dur="5s" begin="0s" xlink:href="#_R_G_L_3_G" fill="freeze" attributeName="transform" from="0" to="0" type="rotate" additive="sum" keyTimes="0;0.5;0.9933333;1" values="0;360;0;0" keySplines="0.333 0 0.176 1;0.333 0 0.093 1;0 0 0 0" calcMode="spline"/><animateTransform repeatCount="indefinite" dur="5s" begin="0s" xlink:href="#_R_G_L_3_G" fill="freeze" attributeName="transform" from="1 1" to="1 1" type="scale" additive="sum" keyTimes="0;0.5;0.9933333;1" values="1 1;1.2 1.2;1 1;1 1" keySplines="0.333 0 0.667 1;0.333 0 0.667 1;0 0 0 0" calcMode="spline"/><animateTransform repeatCount="indefinite" dur="5s" begin="0s" xlink:href="#_R_G_L_3_G" fill="freeze" attributeName="transform" from="-25 -25" to="-25 -25" type="translate" additive="sum" keyTimes="0;1" values="-25 -25;-25 -25" keySplines="0 0 1 1" calcMode="spline"/><animateTransform repeatCount="indefinite" dur="5s" begin="0s" xlink:href="#_R_G_L_2_G" fill="freeze" attributeName="transform" from="0" to="0" type="rotate" additive="sum" keyTimes="0;0.5;0.9933333;1" values="0;360;0;0" keySplines="0.333 0 0.176 1;0.333 0 0.093 1;0 0 0 0" calcMode="spline"/><animateTransform repeatCount="indefinite" dur="5s" begin="0s" xlink:href="#_R_G_L_2_G" fill="freeze" attributeName="transform" from="1 1" to="1 1" type="scale" additive="sum" keyTimes="0;0.5;0.9933333;1" values="1 1;1.2 1.2;1 1;1 1" keySplines="0.333 0 0.667 1;0.333 0 0.667 1;0 0 0 0" calcMode="spline"/><animateTransform repeatCount="indefinite" dur="5s" begin="0s" xlink:href="#_R_G_L_2_G" fill="freeze" attributeName="transform" from="-25 -25" to="-25 -25" type="translate" additive="sum" keyTimes="0;1" values="-25 -25;-25 -25" keySplines="0 0 1 1" calcMode="spline"/><animateMotion repeatCount="indefinite" dur="5s" begin="0s" xlink:href="#_R_G_L_1_G" fill="freeze" keyTimes="0;0.5;0.9933333;1" path="M1512.5 467.5 C1512.5,467.5 1307.5,343.5 1307.5,343.5 C1307.5,343.5 1512.5,467.5 1512.5,467.5 C1512.5,467.5 1512.5,467.5 1512.5,467.5 " keyPoints="0;0.5;1;1" keySplines="0.333 0 0.667 1;0.333 0 0.667 1;0 0 0 0" calcMode="spline"/><animateTransform repeatCount="indefinite" dur="5s" begin="0s" xlink:href="#_R_G_L_1_G" fill="freeze" attributeName="transform" from="1 1" to="1 1" type="scale" additive="sum" keyTimes="0;0.5;0.9933333;1" values="1 1;1.49 1.49;1 1;1 1" keySplines="0.333 0 0.667 1;0.333 0 0.667 1;0 0 0 0" calcMode="spline"/><animateTransform repeatCount="indefinite" dur="5s" begin="0s" xlink:href="#_R_G_L_1_G" fill="freeze" attributeName="transform" from="599.5 142.5" to="599.5 142.5" type="translate" additive="sum" keyTimes="0;1" values="599.5 142.5;599.5 142.5" keySplines="0 0 1 1" calcMode="spline"/><animate repeatCount="indefinite" dur="5s" begin="0s" xlink:href="#_R_G_L_0_G" fill="freeze" attributeName="opacity" from="1" to="1" keyTimes="0;0.5;0.6533333;0.9933333;1" values="1;0.62;0.8200000000000001;1;1" keySplines="0.333 0 0.438 1;0.333 0 0.667 1;0.333 0 0.667 1;0 0 0 0" calcMode="spline"/><animateMotion repeatCount="indefinite" dur="5s" begin="0s" xlink:href="#_R_G_L_0_G" fill="freeze" keyTimes="0;0.5;0.6533333;0.9933333;1" path="M381.5 556.5 C381.5,556.5 502.5,712.5 502.5,712.5 C502.5,712.5 555.5,632.5 555.5,632.5 C555.5,632.5 381.5,556.5 381.5,556.5 C381.5,556.5 381.5,556.5 381.5,556.5 " keyPoints="0;0.41;0.61;1;1" keySplines="0.333 0 0.406 1;0.333 0 0.667 1;0.333 0 0.667 1;0 0 0 0" calcMode="spline"/><animateTransform repeatCount="indefinite" dur="5s" begin="0s" xlink:href="#_R_G_L_0_G" fill="freeze" attributeName="transform" from="1 1" to="1 1" type="scale" additive="sum" keyTimes="0;0.5;0.6533333;0.9933333;1" values="1 1;0.5 0.5;0.56 0.56;1 1;1 1" keySplines="0.333 0 0.449 1;0.333 0 0.667 1;0.333 0 0.667 1;0 0 0 0" calcMode="spline"/><animateTransform repeatCount="indefinite" dur="5s" begin="0s" xlink:href="#_R_G_L_0_G" fill="freeze" attributeName="transform" from="578.5 -16.5" to="578.5 -16.5" type="translate" additive="sum" keyTimes="0;1" values="578.5 -16.5;578.5 -16.5" keySplines="0 0 1 1" calcMode="spline"/><animate attributeType="XML" attributeName="opacity" dur="5s" from="0" to="1" xlink:href="#time_group"/></defs><g id="_R_G"><g id="_R_G_L_4_G"><rect id="_R_G_L_4_G_S" fill="#f9f8f4" width="1920" height="1080"/></g><g id="_R_G_L_3_G" transform=" translate(1532, 672)"><g id="_R_G_L_3_G_L_1_G" transform=" translate(25.121, 24.474) scale(0.21536999999999998, 0.5256799999999999) translate(0, 0)"><path id="_R_G_L_3_G_L_1_G_D_0_P_0" fill="#b75183" fill-opacity="1" fill-rule="nonzero" d=" M8.38 -24 C8.38,-24 8.38,26 8.38,26 C8.38,26 -9.51,26 -9.51,26 C-9.51,26 -9.51,-24 -9.51,-24 C-9.51,-24 8.38,-24 8.38,-24z "/></g><g id="_R_G_L_3_G_L_0_G" transform=" translate(25.121, 24.474) rotate(90) scale(0.21536999999999998, 0.5256799999999999) translate(0, 0)"><path id="_R_G_L_3_G_L_0_G_D_0_P_0" fill="#b75183" fill-opacity="1" fill-rule="nonzero" d=" M8.38 -24 C8.38,-24 8.38,26 8.38,26 C8.38,26 -9.51,26 -9.51,26 C-9.51,26 -9.51,-24 -9.51,-24 C-9.51,-24 8.38,-24 8.38,-24z "/></g></g><g id="_R_G_L_2_G" transform=" translate(399, 299)"><g id="_R_G_L_2_G_L_1_G" transform=" translate(25.121, 24.474) scale(0.21536999999999998, 0.5256799999999999) translate(0, 0)"><path id="_R_G_L_2_G_L_1_G_D_0_P_0" fill="#5f66e5" fill-opacity="1" fill-rule="nonzero" d=" M8.38 -24 C8.38,-24 8.38,26 8.38,26 C8.38,26 -9.51,26 -9.51,26 C-9.51,26 -9.51,-24 -9.51,-24 C-9.51,-24 8.38,-24 8.38,-24z "/></g><g id="_R_G_L_2_G_L_0_G" transform=" translate(25.121, 24.474) rotate(90) scale(0.21536999999999998, 0.5256799999999999) translate(0, 0)"><path id="_R_G_L_2_G_L_0_G_D_0_P_0" fill="#5f66e5" fill-opacity="1" fill-rule="nonzero" d=" M8.38 -24 C8.38,-24 8.38,26 8.38,26 C8.38,26 -9.51,26 -9.51,26 C-9.51,26 -9.51,-24 -9.51,-24 C-9.51,-24 8.38,-24 8.38,-24z "/></g></g><g id="_R_G_L_1_G"><path id="_R_G_L_1_G_D_0_P_0" fill="#b75183" fill-opacity="1" fill-rule="nonzero" d=" M-599.5 -172 C-583.22,-172 -570,-158.78 -570,-142.5 C-570,-126.22 -583.22,-113 -599.5,-113 C-615.78,-113 -629,-126.22 -629,-142.5 C-629,-158.78 -615.78,-172 -599.5,-172z "/></g><g id="_R_G_L_0_G"><path id="_R_G_L_0_G_D_0_P_0" fill="#5f66e5" fill-opacity="1" fill-rule="nonzero" d=" M-578.5 -63 C-534.62,-63 -499,-27.38 -499,16.5 C-499,60.38 -534.62,96 -578.5,96 C-622.38,96 -658,60.38 -658,16.5 C-658,-27.38 -622.38,-63 -578.5,-63z "/></g></g><g id="time_group"/></svg>